Coordinates
version=1
nRows=23
nColumns=34
inDegrees=no

Units are S.I. units (second, meters, Newtons, ...)
If the header above contains a line with 'inDegrees', this indicates whether rotational values are in degrees (yes) or radians (no).

endheader
time	pelvis_tilt	pelvis_list	pelvis_rotation	pelvis_tx	pelvis_ty	pelvis_tz	hip_flexion_r	hip_adduction_r	hip_rotation_r	knee_angle_r	ankle_angle_r	subtalar_angle_r	mtp_angle_r	hip_flexion_l	hip_adduction_l	hip_rotation_l	knee_angle_l	ankle_angle_l	subtalar_angle_l	mtp_angle_l	lumbar_extension	lumbar_bending	lumbar_rotation	arm_flex_r	arm_add_r	arm_rot_r	elbow_flex_r	pro_sup_r	arm_flex_l	arm_add_l	arm_rot_l	elbow_flex_l	pro_sup_l
0.47	0.0117858	-0.071976	-0.159153	0.336742	0.946752	-0.14251	-0.171144	0.127818	0.12557	0.100859	0.38608	0.0379282	0	0.427464	-0.163513	-0.112021	0.119692	0.0919168	0.0923792	0	-0.177106	-0.0371175	0.0424998	0.13942	-0.171224	0.166737	0.738624	2.09	-0.00471755	-0.134218	-0.320358	0.543919	2.09
0.48	0.0150186	-0.0742446	-0.163154	0.347665	0.944673	-0.141357	-0.186651	0.128009	0.127097	0.105071	0.400703	0.0463429	0	0.421057	-0.166759	-0.102023	0.0841399	0.0841857	0.0580458	0	-0.183871	-0.0443987	0.0412034	0.147545	-0.169219	0.176505	0.739104	2.09	0.00012013	-0.138932	-0.323785	0.541999	2.09
0.49	0.0176506	-0.0759306	-0.166312	0.358696	0.942574	-0.140285	-0.200695	0.127539	0.126051	0.110705	0.415329	0.0572811	0	0.417561	-0.169695	-0.0990553	0.0580945	0.080481	0.0318795	0	-0.189937	-0.0523951	0.0394466	0.154332	-0.166723	0.184892	0.739614	2.09	0.00495652	-0.143865	-0.326987	0.540135	2.09
0.5	0.0196187	-0.0768206	-0.168569	0.369862	0.94048	-0.139308	-0.213325	0.126279	0.122914	0.117483	0.429284	0.0694249	0	0.417046	-0.171641	-0.101774	0.0417593	0.0804028	0.0130756	0	-0.195158	-0.0612923	0.0372588	0.159506	-0.163809	0.191661	0.740467	2.09	0.00972171	-0.148944	-0.330064	0.538518	2.09
0.51	0.0210089	-0.0766493	-0.169959	0.381189	0.938417	-0.138445	-0.224379	0.123816	0.115439	0.125813	0.443487	0.0858597	0	0.418909	-0.172054	-0.107629	0.034356	0.0824027	-0.00142902	0	-0.199518	-0.0713533	0.034664	0.162965	-0.160622	0.197003	0.741798	2.09	0.0143372	-0.154052	-0.333325	0.537339	2.09
0.52	0.0212983	-0.0748156	-0.170789	0.392658	0.936344	-0.137739	-0.229869	0.117992	0.0817094	0.141854	0.468672	0.139273	0	0.423484	-0.170544	-0.117158	0.0354825	0.0865119	-0.00994401	0	-0.202326	-0.0830625	0.0318982	0.164585	-0.157355	0.200977	0.743754	2.09	0.0187823	-0.159034	-0.336906	0.536632	2.09
0.53	0.0210864	-0.0723431	-0.170389	0.404381	0.934357	-0.137136	-0.238373	0.113196	0.0707262	0.151312	0.479552	0.155403	0	0.429415	-0.167976	-0.128669	0.0438517	0.0923577	-0.0121719	0	-0.204237	-0.0954511	0.0287519	0.164044	-0.154012	0.203291	0.746505	2.09	0.0230454	-0.164026	-0.340121	0.536188	2.09
0.54	0.0198887	-0.0682776	-0.169355	0.416297	0.932402	-0.136693	-0.243621	0.105678	0.0455795	0.164552	0.494568	0.190119	0	0.436985	-0.16389	-0.14504	0.058601	0.100451	-0.00360178	0	-0.204635	-0.109422	0.0254082	0.161676	-0.150805	0.204851	0.749756	2.09	0.0269911	-0.168807	-0.343707	0.536272	2.09
0.55	0.0174818	-0.062261	-0.167762	0.428418	0.930452	-0.136457	-0.244006	0.0933955	-0.0052462	0.184243	0.51747	0.259822	0	0.445476	-0.157771	-0.161935	0.0770863	0.10694	0.00921219	0	-0.203206	-0.125241	0.0218825	0.157493	-0.147897	0.205955	0.753483	2.09	0.0305317	-0.173359	-0.347253	0.536758	2.09
0.56	0.0154292	-0.0565903	-0.164808	0.440868	0.928731	-0.136292	-0.252162	0.0863427	-0.00817433	0.190342	0.517198	0.257871	0	0.450999	-0.150411	-0.165344	0.0942438	0.102931	0.00621343	0	-0.201981	-0.140896	0.0178326	0.151738	-0.145245	0.207176	0.757298	2.09	0.033631	-0.177851	-0.350441	0.537574	2.09
0.57	0.0127949	-0.0498264	-0.161319	0.453546	0.927127	-0.13626	-0.25947	0.0781253	-0.0127922	0.196721	0.515229	0.257144	0	0.455735	-0.141402	-0.165754	0.111345	0.0936199	0.00394728	0	-0.199829	-0.157761	0.0136548	0.144678	-0.142898	0.208906	0.760913	2.09	0.0362501	-0.182187	-0.353614	0.538812	2.09
0.58	0.00967201	-0.0420726	-0.157433	0.466444	0.92566	-0.136345	-0.265963	0.0688285	-0.0187312	0.203503	0.511296	0.25733	0	0.459326	-0.130723	-0.161863	0.126927	0.0775593	-1.39279e-05	0	-0.196901	-0.17578	0.00949805	0.136545	-0.140872	0.211518	0.763984	2.09	0.0384372	-0.186439	-0.356457	0.540328	2.09
0.59	0.00613974	-0.0333923	-0.153324	0.479547	0.924354	-0.136529	-0.27153	0.058482	-0.0257936	0.211019	0.505205	0.258275	0	0.461684	-0.118481	-0.153952	0.140253	0.0545941	-0.00684012	0	-0.193318	-0.194946	0.00557764	0.12756	-0.139127	0.215235	0.766145	2.09	0.0402859	-0.190669	-0.358735	0.542017	2.09
0.6	0.00222252	-0.0238759	-0.149147	0.492829	0.923227	-0.136787	-0.275912	0.0471593	-0.0338217	0.219737	0.496775	0.259807	0	0.463091	-0.104992	-0.14367	0.151493	0.0260002	-0.0165626	0	-0.18914	-0.215195	0.00212631	0.117922	-0.137597	0.220186	0.76707	2.09	0.0419166	-0.194952	-0.36016	0.543779	2.09
0.61	-0.00211726	-0.0136816	-0.145006	0.506257	0.922294	-0.1371	-0.278698	0.0350206	-0.0426502	0.23027	0.485861	0.26173	0	0.464208	-0.0907798	-0.133507	0.161773	-0.00552212	-0.0281482	0	-0.184361	-0.236361	-0.000666961	0.107803	-0.136208	0.226426	0.766547	2.09	0.0434423	-0.199364	-0.360417	0.545527	2.09
0.62	-0.00696106	-0.00307562	-0.140933	0.519786	0.921565	-0.137449	-0.27939	0.0223445	-0.0520629	0.243304	0.472338	0.263822	0	0.465996	-0.0765211	-0.125964	0.173001	-0.0359738	-0.0396131	0	-0.178947	-0.258123	-0.00271892	0.0973592	-0.1349	0.233956	0.764553	2.09	0.0449355	-0.203961	-0.359239	0.547173	2.09
0.63	-0.0123961	0.00756627	-0.136898	0.533368	0.921039	-0.137827	-0.277475	0.00951638	-0.0617456	0.259544	0.456056	0.265777	0	0.46946	-0.062953	-0.122761	0.187398	-0.0605078	-0.0483179	0	-0.172879	-0.280007	-0.00409299	0.0867469	-0.133635	0.242713	0.761271	2.09	0.0464045	-0.208761	-0.356486	0.548607	2.09
0.64	-0.0184654	0.0177995	-0.132827	0.546957	0.920715	-0.138238	-0.272529	-0.00300695	-0.0712112	0.2796	0.436747	0.267034	0	0.475297	-0.0507789	-0.124467	0.206778	-0.0744407	-0.0514761	0	-0.166208	-0.301442	-0.00500696	0.0761435	-0.132395	0.252541	0.757027	2.09	0.047796	-0.213733	-0.352178	0.549686	2.09
0.65	-0.0251224	0.0272072	-0.128623	0.560508	0.920596	-0.138691	-0.264269	-0.014779	-0.0797971	0.30395	0.413971	0.266651	0	0.483506	-0.0405279	-0.130608	0.231679	-0.0747825	-0.0469532	0	-0.159094	-0.321882	-0.00580121	0.0657466	-0.131142	0.263167	0.752161	2.09	0.0490263	-0.21882	-0.346483	0.550262	2.09
0.66	-0.0329402	0.0351268	-0.124378	0.573962	0.920629	-0.139142	-0.251422	-0.0252998	-0.0881884	0.333683	0.388022	0.266019	0	0.495669	-0.0352738	-0.151766	0.264938	-0.0515815	-0.0132282	0	-0.150908	-0.340527	-0.00655479	0.0557134	-0.129805	0.274467	0.746755	2.09	0.0498879	-0.224036	-0.339413	0.550185	2.09
0.67	-0.0399082	0.0423014	-0.119552	0.58736	0.921014	-0.139747	-0.236857	-0.0345823	-0.0918297	0.366954	0.355785	0.25633	0	0.504496	-0.0282099	-0.158634	0.294571	-0.031266	-0.000915021	0	-0.144199	-0.35813	-0.00838219	0.0463591	-0.128235	0.285433	0.741092	2.09	0.0506827	-0.229132	-0.33183	0.549595	2.09
0.68	-0.0469356	0.048238	-0.114465	0.600644	0.921664	-0.140419	-0.218657	-0.0425719	-0.0935735	0.405318	0.318415	0.241892	0	0.512709	-0.023628	-0.170459	0.324811	-0.000942068	0.0240528	0	-0.137824	-0.374097	-0.0109971	0.0377752	-0.126333	0.296171	0.734812	2.09	0.0512181	-0.234182	-0.323641	0.548542	2.09
0.69	-0.0530059	0.0537901	-0.108972	0.613831	0.922659	-0.141247	-0.19779	-0.050749	-0.0955202	0.448697	0.276015	0.22432	0	0.517189	-0.0180139	-0.17745	0.350326	0.0280223	0.0432763	0	-0.132995	-0.389253	-0.014879	0.0301282	-0.124058	0.306272	0.727928	2.09	0.0516873	-0.239019	-0.315476	0.547334	2.09
